#!OML:ASF F:\VICON\USERDATA\INSTALL\rory3\rory3.ASF
:FULLY-SPECIFIED
:DEGREES
3061
root 0.176167 15.2619 -2.81368 10.8582 6.10949 0.204281
lowerback 37.3502 0.689592 1.79556
upperback 12.8282 1.9265 4.60241
thorax -4.35986 0.839018 3.23134
lowerneck -16.0091 1.15791 -4.87502
upperneck 1.41161 1.80531 12.0512
head 2.87028 1.4416 4.63903
rclavicle -1.90833e-014 -3.57812e-014
rhumerus 51.0502 14.9285 -33.0181
rradius 55.2084
rwrist 3.15102
rhand 19.5431 8.49078
rfingers 7.12502
rthumb 44.1092 -15.3512
lclavicle -1.90833e-014 -3.57812e-014
lhumerus 47.0577 -19.1945 51.4772
lradius 65.1288
lwrist 3.08578
lhand -35.9244 5.28284
lfingers 7.12502
lthumb -9.03687 35.0693
rfemur -40.7132 1.10233 14.1349
rtibia 47.5184
rfoot -13.131 -9.82028
rtoes -16.242
lfemur -41.4591 -5.49454 -14.2754
ltibia 42.394
lfoot -7.18791 -2.19047
ltoes -11.8197
3062
root 0.166144 15.2638 -2.811 10.9818 6.01555 0.110635
lowerback 37.3443 0.788075 1.6387
upperback 12.7411 1.99534 4.61303
thorax -4.46395 0.866381 3.29891
lowerneck -15.7701 1.48011 -4.61867
upperneck 0.963402 2.25775 11.4989
head 2.66134 1.62752 4.44015
rclavicle -1.90833e-014 -2.06736e-014
rhumerus 51.0545 15.2412 -32.6559
rradius 55.3674
rwrist 2.95295
rhand 19.408 8.5362
rfingers 7.12502
rthumb 43.9832 -15.3529
lclavicle -1.90833e-014 -2.06736e-014
lhumerus 47.1932 -18.9323 53.0286
lradius 63.5208
lwrist 2.51599
lhand -38.6771 3.36569
lfingers 7.12502
lthumb -11.6923 33.0194
rfemur -40.8556 1.13451 14.2778
rtibia 47.4853
rfoot -13.1153 -9.74158
rtoes -16.4701
lfemur -41.5991 -5.33641 -14.1493
ltibia 42.4683
lfoot -7.21248 -2.24181
ltoes -11.9399
3063
root 0.161565 15.2651 -2.80794 11.0253 5.90943 -0.0381627
lowerback 37.3597 0.841861 1.56095
upperback 12.7045 2.03689 4.64975
thorax -4.51664 0.881452 3.36303
lowerneck -15.8557 1.85429 -4.41878
upperneck 0.819347 2.7704 10.8986
head 2.59275 1.85817 4.25002
rclavicle -5.56597e-015 1.03368e-014
rhumerus 51.2141 15.5304 -32.3225
rradius 55.5009
rwrist 2.85507
rhand 18.9093 8.54493
rfingers 7.12502
rthumb 43.5177 -15.5155
lclavicle -5.56597e-015 1.03368e-014
lhumerus 47.1076 -18.9098 54.1664
lradius 62.0246
lwrist 1.94743
lhand -40.8695 1.96057
lfingers 7.12502
lthumb -13.8059 31.4824
rfemur -40.911 1.16926 14.4656
rtibia 47.4247
rfoot -13.0615 -9.66038
rtoes -16.5922
lfemur -41.6596 -5.22263 -13.9747
ltibia 42.5197
lfoot -7.21345 -2.268
ltoes -11.8736
3064
root 0.164033 15.2673 -2.80243 10.9736 5.82284 -0.2049
lowerback 37.4264 0.809826 1.62995
upperback 12.7243 2.02069 4.65433
thorax -4.51347 0.8735 3.33751
lowerneck -16.1754 2.20675 -4.4765
upperneck 0.908756 3.27431 10.57
head 2.6294 2.10565 4.19555
rclavicle 2.38542e-015 -2.78299e-014
rhumerus 51.4782 15.7125 -32.1303
rradius 55.6374
rwrist 3.00626
rhand 18.0065 8.42978
rfingers 7.12502
rthumb 42.6737 -15.9305
lclavicle 2.38542e-015 -2.78299e-014
lhumerus 46.8643 -19.0865 54.6239
lradius 60.7762
lwrist 1.68326
lhand -41.9394 1.03172
lfingers 7.12502
lthumb -14.8367 30.4805
rfemur -40.8282 1.16366 14.6607
rtibia 47.3565
rfoot -13.0348 -9.56866
rtoes -16.626
lfemur -41.6076 -5.15583 -13.8118
ltibia 42.5811
lfoot -7.27331 -2.27215
ltoes -11.7187
3065
root 0.167898 15.2685 -2.79647 10.9096 5.67712 -0.190733
lowerback 37.5379 0.790646 1.64414
upperback 12.7556 1.99331 4.54928
thorax -4.50827 0.862975 3.22834
lowerneck -16.3324 2.56192 -4.35036
upperneck 0.76232 3.766 10.1591
head 2.57649 2.3358 4.07746
rclavicle 5.56597e-015 6.36111e-015
rhumerus 51.6647 15.7717 -32.1233
rradius 55.822
rwrist 3.33392
rhand 17.7636 8.47435
rfingers 7.12502
rthumb 42.4463 -15.9644
lclavicle 5.56597e-015 6.36111e-015
lhumerus 46.5864 -19.6205 54.2699
lradius 59.7773
lwrist 1.93441
lhand -41.8104 0.899913
lfingers 7.12502
lthumb -14.7125 30.3578
rfemur -40.7512 1.15352 14.6466
rtibia 47.3347
rfoot -12.9926 -9.43014
rtoes -16.8763
lfemur -41.4953 -5.11918 -13.8537
ltibia 42.6485
lfoot -7.40445 -2.17385
ltoes -11.6952
3066
root 0.170782 15.2657 -2.79149 10.9174 5.46787 -0.116774
lowerback 37.5833 0.823184 1.6414
upperback 12.7579 2.01953 4.42408
thorax -4.51536 0.878745 3.08768
lowerneck -16.2101 2.88756 -4.04222
upperneck 0.319229 4.20652 9.54855
head 2.40406 2.52151 3.85267
rclavicle 1.03368e-014 1.27222e-014
rhumerus 51.7317 15.8321 -32.2209
rradius 56.0555
rwrist 3.63622
rhand 18.0055 8.50396
rfingers 7.12502
rthumb 42.6727 -15.8566
lclavicle 1.03368e-014 1.27222e-014
lhumerus 46.0926 -20.5895 53.6521
lradius 58.8629
lwrist 2.16783
lhand -41.1143 1.30405
lfingers 7.12502
lthumb -14.0418 30.8097
rfemur -40.8068 1.1858 14.5572
rtibia 47.364
rfoot -12.9141 -9.25989
rtoes -16.9874
lfemur -41.4637 -5.06335 -13.9452
ltibia 42.7304
lfoot -7.58542 -2.01412
ltoes -11.8976
3067
root 0.173897 15.2614 -2.78423 10.8908 5.27488 -0.0658162
lowerback 37.6469 0.832647 1.68454
upperback 12.7487 2.03632 4.31819
thorax -4.53971 0.890409 2.9467
lowerneck -16.2186 3.15032 -4.07246
upperneck 0.0888996 4.59759 9.2635
head 2.31096 2.70249 3.78745
rclavicle -5.56597e-015 -1.51076e-014
rhumerus 51.8462 15.911 -32.3234
rradius 56.27
rwrist 3.90116
rhand 18.0438 8.44438
rfingers 7.12502
rthumb 42.7085 -15.9038
lclavicle -5.56597e-015 -1.51076e-014
lhumerus 45.3777 -21.8866 52.7718
lradius 57.8837
lwrist 2.20387
lhand -40.1539 1.61369
lfingers 7.12502
lthumb -13.1161 31.1812
rfemur -40.8199 1.17598 14.511
rtibia 47.4253
rfoot -12.8919 -9.12028
rtoes -17.0071
lfemur -41.3982 -5.00463 -14.0203
ltibia 42.8229
lfoot -7.72676 -1.92825
ltoes -12.1628
3068
root 0.177776 15.2586 -2.77438 10.846 5.04819 0.018902
lowerback 37.6973 0.86586 1.69908
upperback 12.7592 2.06976 4.20296
thorax -4.53926 0.90972 2.80517
lowerneck -16.6558 3.42024 -4.1011
upperneck 0.388261 4.96368 9.08416
head 2.44392 2.89215 3.77472
rclavicle -3.33958e-014 -3.26007e-014
rhumerus 52.012 15.9049 -32.3152
rradius 56.5314
rwrist 3.88772
rhand 18.013 8.29184
rfingers 7.12502
rthumb 42.6798 -16.0663
lclavicle -3.33958e-014 -3.26007e-014
lhumerus 44.8674 -23.5435 51.1626
lradius 56.8472
lwrist 2.43349
lhand -38.9252 1.95539
lfingers 7.12502
lthumb -11.9316 31.5954
rfemur -40.8148 1.2065 14.4203
rtibia 47.5106
rfoot -12.8899 -9.00954
rtoes -17.0313
lfemur -41.3013 -4.91318 -14.1488
ltibia 42.9346
lfoot -7.83806 -1.85011
ltoes -12.2727
3069
root 0.183021 15.2567 -2.7643 10.7889 4.76736 0.0426081
lowerback 37.6904 0.940961 1.73527
upperback 12.8045 2.16245 4.1529
thorax -4.48667 0.955405 2.7011
lowerneck -17.1643 3.69363 -3.97318
upperneck 0.796236 5.30938 8.6602
head 2.63118 3.06236 3.66588
rclavicle 1.51076e-014 1.90833e-014
rhumerus 52.1973 15.8324 -32.2909
rradius 56.8115
rwrist 3.85761
rhand 17.8828 8.13593
rfingers 7.12502
rthumb 42.5579 -16.2644
lclavicle 1.51076e-014 1.90833e-014
lhumerus 44.6342 -25.5411 49.0705
lradius 55.5258
lwrist 2.95096
lhand -37.7297 1.84897
lfingers 7.12502
lthumb -10.7785 31.5524
rfemur -40.8085 1.30126 14.3822
rtibia 47.5989
rfoot -12.9675 -8.84208
rtoes -17.0953
lfemur -41.1979 -4.76921 -14.2272
ltibia 43.046
lfoot -7.95046 -1.70784
ltoes -12.4263
3070
root 0.187616 15.2519 -2.75599 10.7888 4.48515 0.116563
lowerback 37.6145 1.04314 1.71849
upperback 12.8708 2.27071 4.14696
thorax -4.39357 1.00622 2.66675
lowerneck -17.5072 3.91946 -4.02197
upperneck 0.964614 5.64018 8.28424
head 2.71788 3.21856 3.59094
rclavicle 3.49861e-014 1.59028e-014
rhumerus 52.3867 15.696 -32.2556
rradius 57.1226
rwrist 4.06108
rhand 17.5552 8.22998
rfingers 7.12502
rthumb 42.2512 -16.2754
lclavicle 3.49861e-014 1.59028e-014
lhumerus 44.2899 -27.736 47.2034
lradius 54.08
lwrist 3.27184
lhand -37.1662 1.09083
lfingers 7.12502
lthumb -10.235 30.8218
rfemur -40.89 1.32783 14.3065
rtibia 47.7075
rfoot -13.0332 -8.63118
rtoes -17.3728
lfemur -41.1501 -4.64617 -14.3341
ltibia 43.1471
lfoot -8.09721 -1.59943
ltoes -12.5954
3071
root 0.190499 15.2492 -2.74881 10.7863 4.25582 0.265919
lowerback 37.5808 1.12198 1.63807
upperback 12.9448 2.33143 4.14198
thorax -4.30679 1.03289 2.68326
lowerneck -17.7641 4.15235 -4.06907
upperneck 0.962152 5.99211 7.88011
head 2.74015 3.37999 3.50278
rclavicle 9.54166e-015 -9.54166e-015
rhumerus 52.6814 15.5455 -32.2341
rradius 57.3806
rwrist 4.43921
rhand 16.3619 8.12948
rfingers 7.12502
rthumb 41.132 -16.7448
lclavicle 9.54166e-015 -9.54166e-015
lhumerus 43.7244 -29.9859 45.6451
lradius 52.74
lwrist 2.72456
lhand -36.6721 0.895765
lfingers 7.12502
lthumb -9.75833 30.6497
rfemur -40.9551 1.30455 14.1663
rtibia 47.8045
rfoot -13.0957 -8.47714
rtoes -17.8637
lfemur -41.083 -4.54611 -14.5203
ltibia 43.2285
lfoot -8.26257 -1.49897
ltoes -12.9054
3072
root 0.195842 15.2474 -2.74178 10.7742 4.05584 0.38305
lowerback 37.5449 1.1366 1.60314
upperback 13.0357 2.32802 4.12339
thorax -4.19549 1.03057 2.68499
lowerneck -18.0266 4.42741 -3.94291
upperneck 0.878121 6.37701 7.31581
head 2.74709 3.55022 3.33892
rclavicle -3.18055e-015 -3.97569e-015
rhumerus 53.0691 15.4319 -32.3357
rradius 57.6328
rwrist 4.92226
rhand 14.6745 7.78811
rfingers 7.12502
rthumb 39.5451 -17.5735
lclavicle -3.18055e-015 -3.97569e-015
lhumerus 43.0392 -32.2837 44.2201
lradius 51.4883
lwrist 1.6435
lhand -36.0859 1.55584
lfingers 7.12502
lthumb -9.19265 31.3355
rfemur -40.987 1.3015 14.0458
rtibia 47.8796
rfoot -13.155 -8.33606
rtoes -18.0631
lfemur -41.0127 -4.46994 -14.681
ltibia 43.2998
lfoot -8.38651 -1.39135
ltoes -13.0323
3073
root 0.205441 15.2469 -2.73152 10.7408 3.79604 0.411144
lowerback 37.5168 1.13628 1.64181
upperback 13.1439 2.33125 4.12865
thorax -4.06601 1.03177 2.67157
lowerneck -18.2752 4.65696 -3.99394
upperneck 0.712748 6.73451 6.90648
head 2.72127 3.71277 3.24734
rclavicle -3.33958e-014 -2.70347e-014
rhumerus 53.5178 15.3416 -32.4329
rradius 57.9178
rwrist 5.60418
rhand 13.51 7.96462
rfingers 7.12502
rthumb 38.4473 -17.7115
lclavicle -3.33958e-014 -2.70347e-014
lhumerus 42.1443 -34.5749 43.1115
lradius 50.5093
lwrist 0.978663
lhand -35.7942 2.02039
lfingers 7.12502
lthumb -8.91118 31.8122
rfemur -40.9862 1.40633 13.9787
rtibia 47.9264
rfoot -13.1721 -8.17836
rtoes -17.9233
lfemur -40.9102 -4.37633 -14.7534
ltibia 43.3784
lfoot -8.48883 -1.29704
ltoes -12.9033
3074
root 0.217454 15.2467 -2.71749 10.645 3.49297 0.375923
lowerback 37.647 1.12363 1.84284
upperback 13.1632 2.37798 4.08074
thorax -4.07715 1.05908 2.49916
lowerneck -18.2118 4.88004 -3.99331
upperneck 0.308435 7.07247 6.54533
head 2.57898 3.86327 3.14538
rclavicle 2.38542e-014 2.3059e-014
rhumerus 53.8116 15.3218 -32.5978
rradius 58.043
rwrist 6.70735
rhand 11.9536 8.62676
rfingers 7.12502
rthumb 36.9768 -17.4437
lclavicle 2.38542e-014 2.3059e-014
lhumerus 40.7763 -36.8711 42.6327
lradius 50.0236
lwrist 0.649281
lhand -35.3759 1.99255
lfingers 7.12502
lthumb -8.50753 31.8012
rfemur -40.9207 1.52664 13.9731
rtibia 47.9897
rfoot -13.2004 -7.98964
rtoes -17.7347
lfemur -40.7154 -4.29741 -14.7629
ltibia 43.4663
lfoot -8.69709 -1.13885
ltoes -13.0826
